<svg width="2500" height="550" viewBox="0 0 2500 550" fill="none" xmlns="http://www.w3.org/2000/svg">
<path d="M918.435 181.705H860.957V456.115H918.435V344.867H1044.52V456.115H1100.14V181.705H1044.52V292.952H918.435V181.705ZM1359.72 339.305C1359.72 383.804 1337.47 407.908 1296.68 407.908C1255.89 407.908 1233.64 383.804 1233.64 337.451V181.705H1178.01V339.305C1178.01 417.178 1220.66 461.677 1296.68 461.677C1372.69 461.677 1415.34 417.178 1415.34 337.451V181.705H1359.72V339.305ZM1897.41 181.705L1834.37 370.825L1773.19 181.705H1713.85L1810.27 456.115H1856.62L1919.66 276.265L1980.85 456.115H2029.05L2123.61 181.705H2066.14L2004.95 370.825L1941.91 181.705H1897.41ZM2325.71 287.39H2223.74V231.766H2372.07V181.705H2168.11V456.115H2377.63V406.053H2223.74V337.451H2325.71V287.39ZM2444.38 181.705H2500V456.115H2444.38V181.705ZM1650.81 398.637L1674.92 456.115H1734.25L1613.73 181.705L1611.88 179.851H1563.67L1443.15 456.115H1500.63L1524.73 402.345L1526.59 398.637H1650.81ZM1587.77 250.307L1626.71 343.013L1628.56 348.576H1543.27L1545.13 343.013L1587.77 250.307Z" fill="#262729"/>
<path d="M312.136 428.302C312.136 428.302 313.99 426.448 312.136 426.448C226.846 241.036 110.037 98.2685 110.037 98.2685C110.037 98.2685 46.9966 157.6 50.7049 218.786C52.559 265.139 87.7873 291.097 87.7873 291.097C143.411 344.867 276.908 413.469 308.428 428.302H312.136ZM289.887 474.655C289.887 472.801 286.178 472.801 286.178 472.801L63.6837 480.218C87.7873 522.862 128.578 556.237 171.223 546.966C200.889 539.55 267.637 493.196 288.033 478.364C291.741 474.655 289.887 474.655 289.887 474.655ZM293.595 454.26C295.449 452.406 293.595 450.552 293.595 450.552C195.326 383.803 6.20595 283.681 6.20595 283.681C-10.4812 337.45 11.7683 380.095 11.7683 380.095C35.8719 432.01 82.225 446.843 82.225 446.843C102.62 456.114 124.87 456.114 124.87 456.114H291.741C293.595 456.114 293.595 454.26 293.595 454.26ZM308.428 1.85412C299.157 1.85412 273.2 9.27061 273.2 9.27061C213.868 24.1036 200.889 77.8731 200.889 77.8731C189.764 111.247 200.889 148.33 200.889 148.33C221.284 235.474 317.698 380.095 338.094 409.761L339.948 411.615C341.802 411.615 341.802 409.761 341.802 409.761C375.176 85.2896 308.428 1.85412 308.428 1.85412ZM382.593 409.761C384.447 409.761 386.301 407.907 386.301 407.907C408.55 376.387 503.111 233.619 523.506 146.476C523.506 146.476 534.631 103.831 523.506 76.019C523.506 76.019 508.673 22.2495 449.341 7.41649C449.341 7.41649 432.654 3.70824 414.113 0C414.113 0 347.364 85.2896 380.739 406.053C380.739 409.761 382.593 409.761 382.593 409.761ZM434.508 472.801C434.508 472.801 432.654 472.801 432.654 474.655V478.364C454.904 493.196 517.944 539.55 549.464 546.966C549.464 546.966 606.942 567.361 657.003 480.218L434.508 472.801ZM718.189 281.827C718.189 281.827 529.068 383.803 430.8 450.552C430.8 450.552 428.946 452.406 428.946 454.26C428.946 454.26 428.946 456.114 430.8 456.114H601.379C601.379 456.114 618.066 456.114 640.316 446.843C640.316 446.843 686.669 432.01 712.627 378.241C712.627 376.387 734.876 333.742 718.189 281.827ZM412.259 428.302C412.259 428.302 414.113 430.156 415.967 428.302C447.487 411.615 580.984 344.867 636.608 291.097C636.608 291.097 671.836 263.285 673.69 218.786C677.398 155.746 614.358 98.2685 614.358 98.2685C614.358 98.2685 497.548 237.328 412.259 424.594C412.259 424.594 410.405 426.448 412.259 428.302Z" fill="#CF0A2C"/>
</svg>
