<svg width="2500" height="390" viewBox="0 0 2500 390" fill="none" xmlns="http://www.w3.org/2000/svg">
<path fill-rule="evenodd" clip-rule="evenodd" d="M258.426 246.104C204.072 246.104 64.6908 224.263 64.6908 141.056C64.6908 82.935 151.454 36.0142 258.426 36.0142C365.4 36.0142 452.057 82.935 452.057 141.056C452.057 198.998 365.4 246.104 258.426 246.104ZM287.586 0C128.728 0 0 64.1542 0 143.178C0 222.373 128.728 286.455 287.585 286.455C446.3 286.455 575.068 222.373 575.068 143.178C575.068 64.1542 446.301 0 287.586 0Z" fill="#008B56"/>
<path fill-rule="evenodd" clip-rule="evenodd" d="M2183.37 246.104C2129.02 246.104 1989.61 224.269 1989.61 141.056C1989.61 82.935 2076.38 36.0142 2183.37 36.0142C2290.33 36.0142 2376.98 82.935 2376.98 141.056C2376.98 198.998 2290.33 246.104 2183.37 246.104ZM2212.5 0C2053.67 0 1924.93 64.1542 1924.93 143.178C1924.93 222.373 2053.67 286.455 2212.5 286.455C2371.24 286.455 2500 222.373 2500 143.178C2500 64.1542 2371.24 0 2212.5 0Z" fill="#008B56"/>
<path fill-rule="evenodd" clip-rule="evenodd" d="M935.937 0.00131226C888.112 0.00131226 843.071 5.85116 803.39 16.124V52.217C833.328 41.972 868.772 36.0156 906.778 36.0156C1013.74 36.0156 1100.41 82.9368 1100.41 141.058C1100.41 198.999 1013.74 246.106 906.778 246.106C833.127 246.106 769.059 223.762 736.292 190.947V8.48288H634.752V389.536H736.292V246.285C788.016 271.141 858.354 286.457 935.937 286.457C1094.65 286.457 1223.42 222.375 1223.42 143.18C1223.42 64.156 1094.65 0.00131226 935.937 0.00131226Z" fill="#008B56"/>
<path fill-rule="evenodd" clip-rule="evenodd" d="M1584.28 0.00131226C1536.45 0.00131226 1491.42 5.85116 1451.75 16.124V52.217C1481.66 41.972 1517.11 36.0156 1555.12 36.0156C1662.1 36.0156 1748.76 82.9368 1748.76 141.058C1748.76 198.999 1662.09 246.106 1555.12 246.106C1481.48 246.106 1417.4 223.762 1384.63 190.947V8.48288H1283.1V389.536H1384.63V246.285C1436.35 271.141 1506.7 286.457 1584.28 286.457C1743 286.457 1871.76 222.375 1871.76 143.18C1871.76 64.156 1743 0.00131226 1584.28 0.00131226Z" fill="#008B56"/>
</svg>
