<svg version="1.1" xmlns="http://www.w3.org/2000/svg" width="5000" height="833" viewBox="-7.966 -6.512 3920.174 1030.512">
<path d="M0 0 C70.62 0 141.24 0 214 0 C214.144375 34.381875 214.28875 68.76375 214.4375 104.1875 C214.56362451 128.59464745 214.56362451 128.59464745 214.69158936 153.00178528 C214.71644732 157.78634561 214.74117892 162.57090632 214.765625 167.35546875 C214.77542562 169.26745863 214.77542562 169.26745863 214.78542423 171.21807456 C214.95906203 205.44251416 215.01464447 239.66356823 214.84043449 273.88822275 C214.80460921 281.09923593 214.78096833 288.31019933 214.76649475 295.52128601 C214.76448793 296.51017513 214.7624811 297.49906426 214.76041347 298.51791972 C214.75097473 303.38924637 214.74316176 308.26057241 214.73655033 313.13190365 C214.71994883 323.37496262 214.65891744 333.61597552 214.5423063 343.85838932 C214.46685652 350.7929357 214.44121647 357.72652233 214.45510066 364.66146141 C214.46125478 368.60319741 214.44509848 372.54127201 214.36502838 376.48227882 C213.37608277 394.39001281 213.37608277 394.39001281 220.84528065 409.87185669 C223.19385062 412.06327108 225.61070266 413.99650321 228.26395607 415.80532837 C230.86897747 417.59799335 233.17863639 419.67460381 235.5625 421.75 C237.36855971 423.17486807 239.18121614 424.59140994 241 426 C241.98097656 426.78632813 242.96195313 427.57265625 243.97265625 428.3828125 C252.57709689 435.22587352 261.69454395 441.16057131 271 447 C271.58281738 447.36867188 272.16563477 447.73734375 272.76611328 448.1171875 C276.47994818 450.46439293 280.22837063 452.74699544 284 455 C285.11375 455.67160156 286.2275 456.34320313 287.375 457.03515625 C364.17221796 502.33624208 459.07023532 520.40506569 763.6484375 504.87109375 C792.49056308 497.4145653 820.65296736 487.81231407 848 476 C848.96969727 475.58395508 849.93939453 475.16791016 850.93847656 474.73925781 C908.06111966 450.06243255 970.86957688 408.46744203 994.9453125 348.25390625 C1007.69768463 315.11482071 1009.28403871 279.49724326 994.91210938 246.50244141 C986.32857686 227.3212276 975.61166263 210.86747104 961.30078125 195.48828125 C959.30347565 193.32820712 957.39456662 191.12452055 955.5 188.875 C951.38295743 184.15335677 946.73582949 180.08755312 942 176 C941.10539062 175.21753906 940.21078125 174.43507812 939.2890625 173.62890625 C930.94056227 166.4812177 922.08135967 160.17540581 913 154 C912.31808594 153.5344873 911.63617187 153.06897461 910.93359375 152.58935547 C899.94652593 145.14027168 888.51569798 138.64073298 876.7734375 132.45996094 C874.99133073 131.52184488 873.21238826 130.57767922 871.4375 129.62597656 C835.34375203 110.32428087 795.66763675 97.57578701 756 88 C754.97132813 87.74412109 753.94265625 87.48824219 752.8828125 87.22460938 C719.35220715 78.88418802 685.3446474 74.36380821 651 71 C650.30525574 70.92996765 649.61051147 70.8599353 648.89471436 70.78778076 C628.99197756 68.78626544 609.02901201 68.80168632 589.04704285 68.75546646 C586.98459678 68.75012204 584.92217631 68.74200721 582.85974121 68.73348999 C557.0986085 68.64295665 531.48566106 69.8886199 505.875 72.75 C505.12670929 72.83203674 504.37841858 72.91407349 503.60745239 72.99859619 C463.91385693 77.39001723 424.20203415 84.80972033 385.99731445 96.52758789 C381.18499612 98 381.18499612 98 379 98 C379 80.51 379 63.02 379 45 C439.98406782 26.23567144 504.51737581 16.48403695 568 11 C568.88022827 10.92313965 569.76045654 10.8462793 570.6673584 10.76708984 C586.14299605 9.42917189 601.60285645 8.45679016 617.125 7.875 C618.22006866 7.83330688 619.31513733 7.79161377 620.44338989 7.74865723 C718.95156756 4.09220743 817.93117236 11.08171926 1070.66894531 84.92041016 C1072.22364211 85.64044254 1073.78029579 86.35626449 1075.33886719 87.06787109 C1088.56513055 93.10714738 1101.33259843 99.86720433 1114 107 C1114.75522949 107.42394043 1115.51045898 107.84788086 1116.28857422 108.28466797 C1134.40318393 118.51511338 1151.5766239 130.24454349 1168 143 C1169.39605469 144.07507813 1169.39605469 144.07507813 1170.8203125 145.171875 C1176.24030977 149.41952176 1181.34285273 153.95984746 1186.40625 158.625 C1188.61413423 160.64667712 1190.85240942 162.61456522 1193.125 164.5625 C1200.31192998 170.82350648 1206.9045193 177.67828002 1213 185 C1213.64775391 185.77706299 1213.64775391 185.77706299 1214.30859375 186.56982422 C1221.83743658 195.65187344 1228.77435161 204.97582632 1235 215 C1235.57379395 215.92087402 1235.57379395 215.92087402 1236.15917969 216.86035156 C1252.03558202 242.72548785 1260.48119785 271.4734997 1260.3125 301.8125 C1260.31034485 302.51476715 1260.3081897 303.2170343 1260.30596924 303.94058228 C1260.25365695 314.5849238 1259.70679458 324.6582794 1257 335 C1256.80664062 335.7930957 1256.61328125 336.58619141 1256.4140625 337.40332031 C1244.84078777 384.46439887 1212.88404909 425.58225891 1175 455 C1173.92052804 455.88871919 1172.84387132 456.7808651 1171.76953125 457.67578125 C1096.70994116 519.79983685 996.15920849 553.83231357 736 595 C735.29361389 595.04236786 734.58722778 595.08473572 733.85943604 595.12838745 C714.66733462 596.26267061 695.45478713 596.18745703 676.23681641 596.18530273 C672.44086886 596.18522208 668.64504357 596.19208074 664.84912109 596.20581055 C631.32886352 596.32496386 597.95034755 595.31564166 564.5625 592.1875 C563.64329773 592.10318726 562.72409546 592.01887451 561.77703857 591.93200684 C466.05103739 583.11463063 370.21016898 563.17983511 246.375 508.375 C245.4061084 507.89756348 244.4372168 507.42012695 243.43896484 506.92822266 C233.68361477 502.01868875 224.5045104 496.50261129 215 491 C215 603.86 215 716.72 215 833 C144.05 833 73.1 833 0 833 C0 558.11 0 283.22 0 0 Z " fill="#038B58" transform="translate(2507,0)"/>
<path d="M0 0 C70.62 0 141.24 0 214 0 C213.92136719 28.94074219 213.84273437 57.88148437 213.76171875 87.69921875 C213.74090558 106.00588711 213.72329155 124.31247405 213.72070312 142.61914062 C213.7191746 152.23478233 213.7168338 161.85042332 213.71313477 171.46606445 C213.71270497 172.67120652 213.71227517 173.87634858 213.71183234 175.1180101 C213.7037121 194.56704553 213.64974824 214.01569687 213.57881906 233.46459308 C213.50703261 253.42867328 213.48458664 273.39237067 213.50781661 293.35656863 C213.52059654 305.67307098 213.49502332 317.9882619 213.42018137 330.3045486 C213.37252838 338.75360121 213.37286031 347.20180904 213.41065188 355.65090796 C213.43104058 360.5241672 213.43053622 365.39502325 213.37295341 370.2680378 C213.32062021 374.73645964 213.32900636 379.20064206 213.38424657 383.66899095 C213.39369178 385.27892866 213.38148088 386.88918208 213.3445638 388.49872418 C213.1685547 396.70672286 213.69566558 402.39048597 219.49376692 408.55896147 C222.21654784 411.18817299 225.06019678 413.61856438 228 416 C228.99123908 416.84789665 229.98247816 417.69579331 231.00375479 418.5693838 C233.61718702 420.78693564 236.29136527 422.89996281 239 425 C240.07429229 425.84235414 241.14850811 426.68480581 242.22265625 427.52734375 C315.97000338 484.9873925 411.26099664 511.30406689 507 522 C507.77648895 522.08288269 508.55297791 522.16576538 509.35299683 522.25115967 C522.86670421 523.67069662 536.36283343 524.55844074 549.9375 525.125 C550.91577759 525.16669312 551.89405518 525.20838623 552.90197754 525.25134277 C634.01586918 528.66358186 716.2310403 520.30802277 847 476 C848.85923078 475.19237624 850.71860642 474.38508589 852.578125 473.578125 C877.76114038 462.5227061 902.19936653 448.8414054 924 432 C924.52964355 431.59749023 925.05928711 431.19498047 925.60498047 430.78027344 C934.75709271 423.82023762 943.80651248 416.57615151 951.70703125 408.1875 C953 407 953 407 955 407 C955.39505737 406.11066772 955.39505737 406.11066772 955.7980957 405.20336914 C957.05077678 402.90691439 958.32665144 401.52333104 960.23046875 399.74609375 C963.97145444 396.10765383 967.16711502 392.21980248 970.3125 388.0625 C970.87227539 387.32306152 971.43205078 386.58362305 972.00878906 385.82177734 C985.31699629 368.00546231 995.84473964 348.74601315 1001 327 C1001.24339111 326.01628418 1001.24339111 326.01628418 1001.49169922 325.01269531 C1009.44645731 291.83092832 1001.94082593 256.32687681 984.70703125 227.32421875 C977.76119955 216.05483066 970.10839286 205.61930851 961 196 C959.78535694 194.60965386 958.57670441 193.21404438 957.375 191.8125 C951.69640417 185.33008466 945.63604567 179.75044788 938.90625 174.359375 C937.06412955 172.86389011 935.24759785 171.33584255 933.46875 169.765625 C918.35048556 156.51491088 900.69410814 145.89247379 883.14257812 136.18652344 C881.14342565 135.07942669 879.157563 133.95130924 877.171875 132.8203125 C854.13136469 119.9407439 828.98781174 110.29147468 804 102 C802.86626953 101.62037109 801.73253906 101.24074219 800.56445312 100.84960938 C747.7020435 83.30849323 692.46754818 73.97325119 637 70 C636.33605225 69.9516098 635.67210449 69.9032196 634.98803711 69.85336304 C620.3158726 68.82236126 605.6270595 68.81248173 590.92578125 68.81469727 C588.16334392 68.81477788 585.40107473 68.80792171 582.63867188 68.79418945 C556.61175427 68.66708218 530.75841836 69.85814578 504.875 72.75 C504.12670929 72.83203674 503.37841858 72.91407349 502.60745239 72.99859619 C467.33830009 76.90052786 432.69501302 83.64492337 398.4543457 92.92895508 C397.41165527 93.21132774 397.41165527 93.21132774 396.34790039 93.49940491 C394.46405929 94.0110188 392.58123298 94.52636527 390.69848633 95.04199219 C386.49118701 96.1317963 382.24265772 97.05718717 378 98 C378 80.51 378 63.02 378 45 C439.17083841 27.5226176 501.71203918 16.87177614 565.04486084 11.17779541 C566.81770056 11.01657785 568.58980908 10.84736909 570.36181641 10.67724609 C627.85649673 5.16938346 686.40046483 5.4642614 744 9 C744.80344849 9.0485614 745.60689697 9.0971228 746.43469238 9.14715576 C826.68958777 14.05008864 907.31309957 27.58933217 984 52 C984.66086609 52.21011719 985.32173218 52.42023437 986.00262451 52.63671875 C1066.97957037 78.4342566 1150.58418299 116.72916297 1237 220 C1237.35400879 220.5995752 1237.70801758 221.19915039 1238.07275391 221.81689453 C1258.9366779 257.52347867 1265.16468082 299.95401141 1255 340 C1252.43370643 349.62307457 1249.14662294 358.93928524 1245 368 C1244.47148437 369.17433594 1243.94296875 370.34867187 1243.3984375 371.55859375 C1235.92200115 387.59741779 1225.74867345 402.77447641 1214 416 C1212.86111328 417.28390625 1212.86111328 417.28390625 1211.69921875 418.59375 C1210.18087052 420.28817559 1208.65511716 421.97600252 1207.12109375 423.65625 C1205.18168497 425.79924312 1203.30670701 427.98344638 1201.4375 430.1875 C1198.61675363 433.41947135 1195.60533715 436.2102122 1192.33203125 438.9765625 C1190.04798271 440.95836676 1187.85772065 443.02163774 1185.66772461 445.10620117 C1178.26986449 452.10575825 1170.39349098 458.31002303 1162.21044922 464.36328125 C1160.03942278 465.97080955 1157.88108722 467.5943689 1155.72265625 469.21875 C1143.97560033 477.96763114 1131.62974941 485.59700212 1119 493 C1118.27071289 493.42764648 1117.54142578 493.85529297 1116.79003906 494.29589844 C1112.23736693 496.94662457 1107.63687794 499.49980368 1103 502 C1102.1553418 502.45584473 1101.31068359 502.91168945 1100.44042969 503.38134766 C1022.95574552 544.97420518 936.3185869 568.96762876 674.60253906 596.26074219 C669.93472816 596.24934885 665.26714552 596.25614706 660.59934235 596.26761913 C628.15556022 596.33516588 595.81321797 595.20491175 563.5 592.1875 C562.12376465 592.06202789 562.12376465 592.06202789 560.71972656 591.934021 C506.88618978 587.00454984 453.3926349 578.38612862 401 565 C399.78006348 564.68949707 398.56012695 564.37899414 397.30322266 564.05908203 C361.05181189 554.77098472 325.58630991 543.29825102 291 529 C290.14229004 528.6503418 289.28458008 528.30068359 288.40087891 527.94042969 C277.33943568 523.42332819 266.51014739 518.43534835 255.74121094 513.26568604 C254.37414032 512.60955365 253.00604433 511.95555145 251.63671875 511.30413818 C238.70045506 505.13454173 226.52949581 498.08188894 214 491 C214 603.86 214 716.72 214 833 C143.38 833 72.76 833 0 833 C0 558.11 0 283.22 0 0 Z " fill="#038B58" transform="translate(1211,0)"/>
<path d="M0 0 C0.66688087 0.00026688 1.33376175 0.00053375 2.02085114 0.00080872 C90.58841085 0.04499835 178.93896763 9.63875582 389 72.1875 C389.91152832 72.57760254 390.82305664 72.96770508 391.76220703 73.36962891 C428.9425604 89.39452671 465.0901432 109.139978 497 134.1875 C497.80824219 134.81527344 498.61648438 135.44304687 499.44921875 136.08984375 C501.99211395 138.09222016 504.49877991 140.1333222 507 142.1875 C507.96550781 142.96609375 508.93101563 143.7446875 509.92578125 144.546875 C526.35717808 158.04346349 542.85356472 173.66500934 555 191.1875 C555.47937012 191.87086426 555.95874023 192.55422852 556.45263672 193.25830078 C583.30574222 231.78371472 598.02616367 274.94188361 589.96875 322.19921875 C583.53511851 356.62047649 565.16555251 392.39078237 539.59765625 416.62890625 C537.8470471 418.33671322 536.27499557 420.13994139 534.6875 422 C528.01466426 429.69828266 520.78489239 436.57110049 512.82421875 442.921875 C509.97773899 445.20535807 507.21075455 447.56588921 504.4375 449.9375 C456.36629145 489.96590661 397.63160607 516.66765784 339 537.1875 C337.36780518 537.76443604 337.36780518 537.76443604 335.70263672 538.35302734 C256.02265132 566.36902952 171.24037078 580.80123583 87.1875 586.9375 C86.37942902 586.99666595 85.57135803 587.05583191 84.73880005 587.11679077 C79.16157461 587.5180944 73.58221692 587.86385567 68 588.1875 C67.21513214 588.2358902 66.43026428 588.2842804 65.62161255 588.33413696 C46.38935209 589.4902195 27.12354725 589.3748927 7.86450195 589.37280273 C4.02688823 589.37272212 0.18939554 589.37957403 -3.64819336 589.39331055 C-37.48646725 589.51233379 -71.24743207 588.69847891 -104.9375 585.3125 C-106.74526574 585.13624749 -108.55304613 584.96014506 -110.36083984 584.78417969 C-115.57593096 584.27104893 -120.78816564 583.73257515 -126 583.1875 C-126.7299115 583.11229126 -127.459823 583.03708252 -128.21185303 582.95959473 C-220.99630022 573.3888454 -314.39360971 551.42418297 -401.66894531 511.26708984 C-403.22364211 510.54705746 -404.78029579 509.83123551 -406.33886719 509.11962891 C-438.55037296 494.41145491 -469.20710768 476.14868317 -497 454.1875 C-498.25490234 453.20716797 -498.25490234 453.20716797 -499.53515625 452.20703125 C-502.04608043 450.22687153 -504.52718886 448.21505794 -507 446.1875 C-508.010625 445.36378906 -509.02125 444.54007812 -510.0625 443.69140625 C-524.23964743 431.94540339 -537.8954393 418.90910641 -549 404.1875 C-549.68320313 403.33285156 -550.36640625 402.47820312 -551.0703125 401.59765625 C-579.82562 364.85476333 -594.06156941 321.5891777 -589.5703125 274.8984375 C-584.86591307 236.99092367 -564.93987248 203.29944084 -540 175.1875 C-539.46455566 174.58357422 -538.92911133 173.97964844 -538.37744141 173.35742188 C-536.74002005 171.52136566 -535.09176253 169.69588789 -533.4375 167.875 C-532.92461426 167.30515381 -532.41172852 166.73530762 -531.88330078 166.14819336 C-530.6306937 164.78821393 -529.32004731 163.48212104 -528 162.1875 C-527.34 162.1875 -526.68 162.1875 -526 162.1875 C-525.75894531 161.61128906 -525.51789062 161.03507813 -525.26953125 160.44140625 C-522.65457018 155.79884459 -517.99269848 152.62638957 -514 149.1875 C-513.01386719 148.32640625 -512.02773437 147.4653125 -511.01171875 146.578125 C-487.3444756 126.07946761 -460.71792268 109.29247018 -433.24023438 94.40380859 C-431.77779636 93.60979528 -430.31802012 92.81085404 -428.86132812 92.00634766 C-357.60145088 52.66291221 -275.61883922 30.38282547 -78.3125 2.4375 C-77.48326019 2.37833405 -76.65402039 2.31916809 -75.7996521 2.25820923 C-50.55995092 0.48850326 -25.29592436 -0.02133244 0 0 Z M-146 63.1875 C-146.68298157 63.25066406 -147.36596313 63.31382813 -148.06964111 63.37890625 C-213.13672404 69.39820616 -278.99010562 82.7138368 -339 109.1875 C-339.96164063 109.60999023 -340.92328125 110.03248047 -341.9140625 110.46777344 C-380.15173134 127.37583824 -415.57811482 148.25544112 -446 177.1875 C-446.56654297 177.72536133 -447.13308594 178.26322266 -447.71679688 178.81738281 C-477.61170397 207.40748457 -499.92919151 245.53302102 -501.03125 287.78515625 C-501.1738925 326.94943836 -484.32961203 362.22503008 -458.16796875 390.796875 C-456.32717876 392.8267191 -454.56699241 394.89637686 -452.8125 397 C-398.70628719 458.83567178 -307.65826572 489.50551452 -137.6315918 518.34570312 C-86.85647357 521.57299853 -36.51067482 520.38816588 14 514.1875 C15.24990723 514.03555176 16.49981445 513.88360352 17.78759766 513.72705078 C58.8041173 508.61340561 98.73240781 499.00132577 138 486.1875 C139.37671875 485.74156494 139.37671875 485.74156494 140.78125 485.28662109 C197.55191691 466.73446908 259.70089362 435.42620123 298 388.1875 C298.67933594 387.39601563 299.35867188 386.60453125 300.05859375 385.7890625 C324.68798277 356.67772228 340.23711058 320.15860826 337.60107422 281.56103516 C333.7573066 235.89242685 306.78252708 196.86494616 272.92578125 167.4609375 C270.32397502 165.31112388 267.68088512 163.23758862 265 161.1875 C263.9996875 160.3934375 262.999375 159.599375 261.96875 158.78125 C249.94707308 149.28220884 237.09603036 141.11404469 224 133.1875 C222.77796875 132.42179687 222.77796875 132.42179687 221.53125 131.640625 C213.95672353 126.94441859 206.03989283 123.00917887 198 119.1875 C196.93587891 118.68154297 195.87175781 118.17558594 194.77539062 117.65429688 C128.98136762 86.62622756 57.68211452 69.91652027 -14.625 63.5 C-15.65065063 63.40859238 -15.65065063 63.40859238 -16.69702148 63.31533813 C-21.46180047 62.89684333 -26.22889314 62.52598268 -31 62.1875 C-31.682901 62.1380423 -32.365802 62.08858459 -33.06939697 62.03762817 C-48.9033727 60.9326276 -64.76013678 60.98643139 -80.625 61 C-81.67337225 61.00040031 -81.67337225 61.00040031 -82.74292374 61.00080872 C-103.89004957 61.01094232 -124.93008896 61.17693932 -146 63.1875 Z " fill="#058C59" transform="translate(4404,6.8125)"/>
<path d="M0 0 C0.99881636 0.00040031 0.99881636 0.00040031 2.01781082 0.00080872 C95.23717879 0.04738408 188.3031705 10.4832322 404.67333984 79.08105469 C406.3043215 79.83637953 407.93757075 80.5868223 409.57275391 81.33300781 C423.85622762 87.85779189 437.50578751 95.2703799 451.0625 103.1875 C452.16513184 103.82800293 452.16513184 103.82800293 453.29003906 104.48144531 C462.79457203 110.01775576 471.99809827 115.95845478 481.0625 122.1875 C481.93406738 122.78449707 481.93406738 122.78449707 482.82324219 123.39355469 C495.51955657 132.13704023 507.54217466 141.7812983 518.8984375 152.20703125 C520.96241208 154.09590329 523.06540254 155.9269626 525.1875 157.75 C532.02743197 163.72289834 538.22876585 170.23689853 544.0625 177.1875 C544.52817383 177.73937988 544.99384766 178.29125977 545.47363281 178.85986328 C553.34697441 188.22879597 560.5974796 197.79253941 567.0625 208.1875 C567.75988281 209.30382812 568.45726562 210.42015625 569.17578125 211.5703125 C578.39514739 227.00156224 584.6438292 243.80309445 589.0625 261.1875 C589.24184082 261.88536621 589.42118164 262.58323242 589.60595703 263.30224609 C594.5124851 283.47894194 594.18421348 308.15683108 589.0625 328.1875 C588.90152832 328.87811523 588.74055664 329.56873047 588.57470703 330.28027344 C582.58037575 355.99658805 569.94534743 379.2679778 554.0625 400.1875 C553.39734375 401.06535156 552.7321875 401.94320313 552.046875 402.84765625 C539.07089245 419.48961761 523.73522205 435.25620225 507.0625 448.1875 C505.91299302 449.12339674 504.76601981 450.06241098 503.62109375 451.00390625 C433.44435748 508.49463373 344.01331179 539.63099632 257.0625 561.1875 C256.35647644 561.36303406 255.65045288 561.53856812 254.92303467 561.71942139 C193.97222749 576.82085368 130.71050226 584.79992112 68.0625 588.1875 C67.35984009 588.22986786 66.65718018 588.27223572 65.93322754 588.31588745 C46.59619207 589.46402713 27.23536357 589.37494634 7.87207031 589.37280273 C4.02762079 589.37272207 0.18329196 589.37958222 -3.66113281 589.39331055 C-37.15348276 589.51085645 -70.5204485 588.58934788 -103.875 585.375 C-104.76886414 585.29101959 -105.66272827 585.20703918 -106.5836792 585.12051392 C-179.1607789 578.28354076 -250.44439466 564.8013027 -319.9855957 542.80407715 C-321.76612159 542.24163586 -323.54802884 541.68357229 -325.33007812 541.12597656 C-381.79213281 523.38024463 -436.73250479 497.61685592 -484.9375 463.1875 C-485.68064453 462.65672852 -486.42378906 462.12595703 -487.18945312 461.57910156 C-496.17904161 455.10577689 -504.64006054 448.15427836 -512.92578125 440.8046875 C-515.83777432 438.1622072 -515.83777432 438.1622072 -518.9375 436.1875 C-518.9375 435.5275 -518.9375 434.8675 -518.9375 434.1875 C-519.47761719 433.97351563 -520.01773438 433.75953125 -520.57421875 433.5390625 C-523.78781248 431.70120559 -526.18711879 429.19113749 -528.75 426.5625 C-529.2869751 426.0169043 -529.8239502 425.47130859 -530.37719727 424.90917969 C-534.39726218 420.79856456 -538.26228659 416.61096046 -541.9375 412.1875 C-542.39205566 411.65205566 -542.84661133 411.11661133 -543.31494141 410.56494141 C-574.15133023 374.1855877 -593.50664564 329.92825305 -589.73095703 281.54052734 C-585.90570664 242.7023046 -567.99302111 208.50874603 -542.9375 179.1875 C-542.30070313 178.43855469 -541.66390625 177.68960938 -541.0078125 176.91796875 C-530.85308187 165.3210293 -519.90063898 153.83726201 -507.72265625 144.359375 C-505.62093407 142.72044438 -503.58545952 141.05527879 -501.55859375 139.328125 C-484.1498596 124.60504839 -464.65024299 112.56437941 -444.9375 101.1875 C-444.2043457 100.76307617 -443.47119141 100.33865234 -442.71582031 99.90136719 C-411.40681521 81.88007802 -378.03950232 67.08285226 -343.9375 55.1875 C-342.98864929 54.85649292 -342.98864929 54.85649292 -342.02062988 54.51879883 C-260.37638648 26.10760107 -175.5377889 9.95175726 -78.25 2.4375 C-77.42021637 2.37824341 -76.59043274 2.31898682 -75.73550415 2.25793457 C-50.51724167 0.48991457 -25.27444073 -0.02134515 0 0 Z M-144.9375 63.1875 C-146.36598721 63.31837545 -147.79453865 63.44855128 -149.22314453 63.578125 C-233.14326746 71.27510047 -319.37948782 91.99579317 -456.9375 188.1875 C-456.9375 188.8475 -456.9375 189.5075 -456.9375 190.1875 C-457.5975 190.1875 -458.2575 190.1875 -458.9375 190.1875 C-460.26834727 191.51800532 -460.26834727 191.51800532 -461.58984375 193.30859375 C-462.11352539 193.98776855 -462.63720703 194.66694336 -463.17675781 195.36669922 C-463.73717773 196.11193848 -464.29759766 196.85717773 -464.875 197.625 C-465.45475586 198.39344238 -466.03451172 199.16188477 -466.63183594 199.95361328 C-480.41027752 218.42154633 -491.57290062 237.60677888 -496.9375 260.1875 C-497.09976074 260.83799316 -497.26202148 261.48848633 -497.42919922 262.15869141 C-501.97056183 280.91934624 -501.55861048 301.4927952 -496.9375 320.1875 C-496.78716309 320.84379395 -496.63682617 321.50008789 -496.48193359 322.17626953 C-492.32658166 339.98430423 -483.92612855 357.59256479 -472.9375 372.1875 C-472.55239258 372.70957031 -472.16728516 373.23164063 -471.77050781 373.76953125 C-466.79849459 380.50402656 -461.57114443 386.88966863 -455.890625 393.046875 C-454.30847392 394.78091258 -452.82803119 396.53449382 -451.375 398.375 C-448.86354103 401.27283727 -446.21267441 403.66329167 -443.296875 406.140625 C-441.03064329 408.10669357 -438.83971192 410.13980217 -436.65380859 412.19433594 C-430.74058654 417.7279484 -424.58603289 422.54879146 -417.9375 427.1875 C-416.72742931 428.07445751 -415.51921215 428.9639473 -414.3125 429.85546875 C-402.39844487 438.57729028 -389.80155426 445.9621402 -376.9375 453.1875 C-376.19064941 453.6112793 -375.44379883 454.03505859 -374.67431641 454.47167969 C-315.07262835 488.10785004 -244.48882652 506.12563677 -176.9375 514.1875 C-175.53108453 514.35902729 -174.12467189 514.53057777 -172.71826172 514.70214844 C-95.72958867 523.99818414 -17.12645119 522.12977515 261.2421875 422.9375 C269.50582136 416.36307437 277.42038326 409.47416945 285.0625 402.1875 C285.54638184 401.73616699 286.03026367 401.28483398 286.52880859 400.81982422 C314.91118564 374.28786227 336.09183443 336.41661996 338.1706543 297.14428711 C339.42219303 255.46549299 322.01325734 218.97677219 294.28515625 188.6328125 C292.15201605 186.28598338 290.07617927 183.89715414 288 181.5 C284.93167321 178.04434991 281.7126377 174.97479947 278.18359375 171.99609375 C275.81289346 169.97466791 273.53796739 167.86447223 271.25 165.75 C266.12462527 161.13794049 260.71746341 157.12324086 255.0625 153.1875 C254.45599609 152.76178711 253.84949219 152.33607422 253.22460938 151.89746094 C180.34162302 100.7776395 93.08056145 75.62631278 -30.9375 62.1875 C-32.22205078 62.09106201 -33.50660156 61.99462402 -34.83007812 61.89526367 C-49.88530594 60.85673442 -64.97940432 60.9873734 -80.0625 61 C-80.77568516 61.00026688 -81.48887032 61.00053375 -82.22366714 61.00080872 C-103.19429099 61.0106639 -124.04497634 61.16022282 -144.9375 63.1875 Z " fill="#058C59" transform="translate(593.9375,6.8125)"/>
<path d="M0 0 C0 3 0 3 -2.38671875 5.72729492 C-3.47931119 6.81941176 -4.5801754 7.90329204 -5.6875 8.98046875 C-6.26459717 9.55332108 -6.84169434 10.1261734 -7.4362793 10.71638489 C-9.28394376 12.54723565 -11.14175807 14.36739185 -13 16.1875 C-14.25328593 17.42574262 -15.50589901 18.66466668 -16.7578125 19.90429688 C-19.83078528 22.94416468 -22.91290242 25.97448016 -26 29 C-26 26 -26 26 -24.71484375 24.45703125 C-24.12832031 23.91433594 -23.54179687 23.37164062 -22.9375 22.8125 C-19.55699951 19.59656748 -16.54865036 16.19673104 -13.578125 12.6015625 C-12 11 -12 11 -9 10 C-8.31558691 8.6756885 -7.65095851 7.34107242 -7 6 C-5.2734375 4.296875 -5.2734375 4.296875 -3.375 2.75 C-2.74335938 2.22921875 -2.11171875 1.7084375 -1.4609375 1.171875 C-0.73777344 0.59179688 -0.73777344 0.59179688 0 0 Z " fill="#B7DECF" transform="translate(3887,159)"/>
</svg>
