<?xml version="1.0" standalone="no"?>
<!DOCTYPE svg PUBLIC "-//W3C//DTD SVG 20010904//EN"
 "http://www.w3.org/TR/2001/REC-SVG-20010904/DTD/svg10.dtd">
<svg version="1.0" xmlns="http://www.w3.org/2000/svg"
 width="1680.000000pt" height="343.000000pt" viewBox="0 0 1680.000000 343.000000"
 preserveAspectRatio="xMidYMid meet">

<g transform="translate(0.000000,343.000000) scale(0.100000,-0.100000)"
fill="#000000" stroke="none">
<path d="M13800 2735 l0 -235 325 0 325 0 0 235 0 235 -325 0 -325 0 0 -235z"/>
<path d="M460 1736 l0 -1216 365 0 365 0 0 364 0 363 293 6 c394 8 545 34 688
118 184 108 321 321 359 563 18 110 8 341 -19 434 -74 254 -255 443 -501 521
-163 52 -191 53 -892 58 l-658 5 0 -1216z m1164 593 c214 -37 315 -251 189
-398 -74 -87 -167 -111 -430 -111 l-183 0 0 260 0 260 182 0 c100 0 209 -5
242 -11z"/>
<path d="M7175 2340 c-295 -14 -468 -76 -609 -216 -76 -75 -120 -156 -152
-280 -13 -53 -24 -100 -24 -105 0 -5 140 -9 310 -9 l310 0 0 28 c0 36 37 95
79 126 90 67 271 51 346 -30 21 -22 25 -37 25 -86 0 -33 -5 -68 -10 -79 -26
-48 -162 -87 -411 -118 -245 -31 -375 -68 -486 -140 -76 -49 -156 -140 -195
-221 -27 -56 -32 -79 -36 -165 -11 -274 104 -463 329 -542 101 -35 335 -45
456 -18 110 24 212 69 298 131 41 29 76 50 79 46 2 -4 6 -29 10 -57 4 -27 9
-62 12 -77 l6 -28 329 0 c257 0 329 3 329 13 0 6 -9 40 -20 75 -38 121 -42
181 -50 722 -6 498 -8 540 -28 611 -28 105 -74 192 -131 249 -55 55 -181 120
-281 144 -59 14 -281 38 -320 34 -8 -1 -82 -4 -165 -8z m289 -1087 c3 -21 6
-71 6 -111 0 -79 -22 -137 -76 -201 -59 -71 -196 -102 -289 -67 -145 56 -160
246 -24 298 59 22 351 116 365 117 6 1 14 -16 18 -36z"/>
<path d="M3205 2325 c-346 -48 -533 -200 -606 -493 -11 -46 -19 -85 -17 -87 1
-2 140 -5 308 -6 l304 -4 8 45 c6 34 17 54 47 82 50 47 104 61 211 56 95 -5
158 -30 186 -73 31 -48 -4 -174 -55 -194 -54 -22 -204 -51 -367 -72 -350 -44
-517 -125 -637 -307 -66 -100 -82 -151 -81 -257 2 -248 138 -438 366 -510 259
-82 536 -36 755 126 29 22 54 39 57 39 3 0 10 -34 17 -75 l13 -75 318 0 c180
0 318 4 318 9 0 5 -9 37 -19 72 -43 141 -45 166 -47 714 -2 590 -3 598 -71
728 -71 135 -225 239 -413 277 -77 16 -133 20 -300 19 -113 -1 -245 -7 -295
-14z m445 -1163 c0 -124 -1 -130 -29 -173 -15 -25 -41 -55 -56 -67 -41 -32
-129 -55 -215 -56 -64 -1 -80 3 -109 23 -39 28 -70 91 -71 141 0 43 27 98 60
122 22 16 375 135 408 137 9 1 12 -31 12 -127z"/>
<path d="M8840 2329 c-353 -41 -584 -221 -622 -486 -33 -227 61 -398 279 -505
102 -50 136 -59 533 -153 187 -44 243 -82 243 -165 0 -83 -89 -135 -228 -135
-63 0 -90 5 -128 24 -60 29 -104 87 -113 148 l-7 45 -308 -4 c-169 -2 -312 -7
-316 -11 -14 -14 28 -181 64 -257 110 -229 407 -360 817 -360 402 0 676 119
782 340 40 82 51 130 59 255 12 166 -23 262 -132 370 -86 86 -192 132 -468
204 -126 33 -262 67 -302 75 -118 24 -157 54 -155 119 2 82 51 117 174 125 70
4 83 2 133 -23 58 -28 97 -74 110 -127 l7 -28 299 0 c340 0 309 -10 288 92
-19 90 -66 175 -134 244 -169 168 -519 254 -875 213z"/>
<path d="M10688 2325 c-288 -48 -515 -210 -632 -451 -66 -134 -88 -230 -94
-404 -5 -174 7 -281 45 -405 97 -311 323 -518 632 -580 127 -26 392 -16 516
18 325 92 509 278 597 605 26 99 37 375 18 490 -52 328 -247 579 -529 682
-155 57 -377 75 -553 45z m270 -480 c128 -38 197 -169 209 -400 12 -221 -57
-408 -170 -467 -60 -31 -176 -31 -233 -1 -118 63 -174 203 -174 438 0 123 16
219 46 277 27 52 97 120 149 144 58 28 102 30 173 9z"/>
<path d="M5473 2321 c-83 -14 -184 -48 -233 -79 -25 -16 -71 -55 -102 -87
l-56 -58 -7 102 -8 101 -311 -2 -311 -3 0 -890 0 -890 330 0 330 0 5 540 c5
505 7 543 25 592 25 64 52 96 107 124 86 45 250 21 292 -43 36 -55 39 -112 40
-668 l1 -545 325 0 325 0 0 660 c0 738 -1 741 -71 883 -62 126 -163 208 -305
248 -63 18 -299 27 -376 15z"/>
<path d="M12905 2323 c-119 -16 -240 -75 -322 -159 l-61 -63 -8 100 -7 99
-308 0 -309 0 0 -889 0 -888 316 -8 c173 -4 318 -4 322 0 4 4 10 241 13 528 4
384 9 533 18 562 46 140 106 190 231 190 93 0 165 -25 185 -66 34 -65 37 -119
36 -667 l-2 -542 331 0 332 0 -5 648 c-5 723 -7 744 -73 878 -97 197 -265 286
-533 283 -69 -1 -139 -4 -156 -6z"/>
<path d="M15327 2319 c-177 -19 -363 -89 -487 -184 -117 -90 -233 -274 -280
-445 -50 -185 -48 -430 6 -616 64 -223 205 -391 419 -499 134 -67 218 -86 416
-92 131 -4 183 -2 248 11 293 60 500 215 611 460 31 67 70 204 70 243 l0 23
-217 -1 c-120 -1 -261 -4 -313 -8 l-95 -6 -7 -42 c-14 -85 -70 -158 -145 -190
-18 -7 -67 -13 -109 -13 -113 0 -165 34 -223 148 -37 73 -53 166 -52 313 1
209 22 280 105 357 59 54 81 62 174 62 128 -1 203 -52 238 -165 l18 -55 308 0
c169 0 308 4 308 8 0 25 -46 184 -70 243 -34 81 -103 191 -151 237 -114 113
-302 189 -519 212 -107 11 -142 11 -253 -1z"/>
<path d="M13800 1405 l0 -895 325 0 325 0 0 895 0 895 -325 0 -325 0 0 -895z"/>
</g>
</svg>
