<svg width="2508" height="378" viewBox="0 0 2508 378" fill="none" xmlns="http://www.w3.org/2000/svg">
<g filter="url(#filter0_d_19_44)">
<path d="M185.799 250.396H117.396V166.528H161.845C170.26 166.528 177.425 166.328 185.84 165.888C191.423 165.684 196.882 164.256 201.8 161.713C206.717 159.17 210.963 155.579 214.21 151.217C217.808 146.666 220.105 141.292 220.875 135.627C221.625 130.67 221.708 126.433 221.208 121.396C220.334 112.43 215.991 104.104 209.035 98.0582C202.08 92.0128 193.017 88.6869 183.633 88.7361H117.396V360.647H4.20996V2.70947H189.173C196.547 2.70947 202.754 2.8294 210.127 3.22915C259.243 5.74759 299.693 31.9314 320.48 74.6648C331.101 95.7976 335.165 119.415 332.186 142.703C329.675 167.367 319.009 190.614 301.748 209.047C284.487 227.481 261.536 240.134 236.247 245.159C219.707 248.736 202.795 250.492 185.84 250.396" fill="black"/>
<path d="M606.09 340.62C604.591 319.553 603.757 301.724 603.299 280.577C602.716 252.794 602.383 229.409 602.174 201.626C602.174 187.401 600.242 173.238 596.426 159.492C594.136 150.388 589.874 141.849 583.917 134.431C577.959 127.013 570.44 120.883 561.849 116.439C551.641 110.896 540.594 106.917 529.106 104.646C492.597 96.7739 454.808 96.0533 418.003 102.528C407.172 104.327 398.132 106.845 387.925 110.922C376.595 115.217 366.436 121.936 358.221 130.567C350.005 139.199 343.951 149.515 340.518 160.732C337.672 169.242 336.805 178.248 337.977 187.115C338.144 188.794 338.602 190.233 339.393 191.792L429.084 193.911C428.808 188.717 429.63 183.522 431.5 178.64C432.842 174.871 435.063 171.446 437.994 168.627C440.925 165.807 444.489 163.667 448.413 162.371C459.898 158.144 472.567 157.932 484.198 161.771C488.052 162.916 491.551 164.956 494.385 167.71C497.22 170.465 499.301 173.849 500.445 177.561C501.944 182.358 501.195 187.155 498.153 191.273C495.653 194.792 492.071 197.475 487.906 198.948C485.239 199.947 482.907 200.627 480.199 201.346C468.4 204.434 456.442 206.929 444.373 208.822C434.291 210.421 425.793 211.9 415.795 213.859C402.926 216.28 390.224 219.458 377.761 223.373C366.258 226.821 355.718 232.725 346.934 240.642C335.161 250.676 327.582 264.468 325.604 279.458C324.063 289.891 324.438 298.966 326.854 309.239C329.65 322.037 336.067 333.848 345.4 343.375C354.733 352.902 366.622 359.778 379.76 363.246C408.759 371.764 439.954 370.251 467.909 358.969C481.568 353.87 493.601 345.437 502.819 334.504L496.487 290.531C492.265 297.002 486.069 302.068 478.741 305.042C471.659 308.04 465.202 309.639 457.495 310.399C451.038 310.998 445.456 310.559 439.207 308.88C434.356 307.675 429.972 305.148 426.584 301.604C423.612 298.627 421.588 294.896 420.752 290.851C420.041 287.768 420.233 284.557 421.307 281.573C422.38 278.588 424.293 275.947 426.834 273.941C430.138 271.178 433.953 269.035 438.082 267.625C447.946 264.124 457.952 261.003 468.076 258.271C480.949 254.793 491.571 251.036 503.777 245.639C504.944 254.993 504.902 262.988 503.527 272.302C502.569 279.138 500.361 284.775 496.487 290.531L502.819 334.504C504.777 340.74 506.568 345.937 508.818 352.093C510.068 355.491 511.734 358.129 514.234 360.807H612.964C608.876 354.784 606.506 347.837 606.09 340.66" fill="black"/>
<path d="M724.192 131.99C736.559 121.457 750.503 112.765 765.559 106.205C790.131 94.8854 818.251 92.8866 844.293 100.609C858.306 104.313 871.11 111.368 881.507 121.114C891.904 130.86 899.553 142.978 903.74 156.334C908.05 169.019 910.188 182.289 910.072 195.63V360.648H804.26V212.26C804.26 207.303 803.593 203.065 802.093 198.348C800.856 194.251 798.664 190.477 795.684 187.313C792.703 184.148 789.012 181.674 784.889 180.08C775.915 176.372 765.836 175.952 756.561 178.899C747.286 181.846 739.46 187.955 734.565 196.07C730.368 202.733 728.204 210.391 728.317 218.176V360.648H625.837V104.966H721.943L724.192 131.99Z" fill="black"/>
<path d="M1204.31 340.62C1202.81 319.553 1201.97 301.724 1201.51 280.577C1200.93 252.794 1200.6 229.409 1200.39 201.626C1200.39 187.401 1198.46 173.238 1194.64 159.492C1192.35 150.388 1188.09 141.849 1182.13 134.431C1176.17 127.013 1168.65 120.883 1160.06 116.439C1149.86 110.896 1138.81 106.917 1127.32 104.646C1090.81 96.7739 1053.02 96.0533 1016.22 102.528C1005.39 104.327 996.347 106.845 986.14 110.922C974.81 115.217 964.651 121.936 956.435 130.567C948.22 139.199 942.166 149.515 938.733 160.732C935.887 169.242 935.02 178.248 936.192 187.115C936.359 188.794 936.817 190.233 937.608 191.792L1027.3 193.911C1027.02 188.717 1027.84 183.522 1029.71 178.64C1031.06 174.871 1033.28 171.446 1036.21 168.627C1039.14 165.807 1042.7 163.667 1046.63 162.371C1058.11 158.144 1070.78 157.932 1082.41 161.771C1086.27 162.916 1089.77 164.956 1092.6 167.71C1095.43 170.465 1097.52 173.849 1098.66 177.561C1100.16 182.358 1099.41 187.155 1096.37 191.273C1093.87 194.792 1090.29 197.475 1086.12 198.948C1083.45 199.947 1081.12 200.627 1078.41 201.346C1066.61 204.434 1054.66 206.929 1042.59 208.822C1032.51 210.421 1024.01 211.9 1014.01 213.859C1001.14 216.28 988.439 219.458 975.976 223.373C964.472 226.821 953.933 232.725 945.148 240.642C933.376 250.676 925.797 264.468 923.819 279.458C922.278 289.891 922.653 298.966 925.069 309.239C927.865 322.037 934.282 333.848 943.615 343.375C952.948 352.902 964.837 359.778 977.975 363.246C1006.97 371.764 1038.17 370.251 1066.12 358.969C1079.78 353.87 1091.82 345.437 1101.03 334.504L1094.7 290.531C1090.48 297.002 1084.28 302.068 1076.96 305.042C1069.87 308.04 1063.42 309.639 1055.71 310.399C1049.25 310.998 1043.67 310.559 1037.42 308.88C1032.57 307.675 1028.19 305.148 1024.8 301.604C1021.83 298.627 1019.8 294.896 1018.97 290.851C1018.26 287.768 1018.45 284.557 1019.52 281.573C1020.6 278.588 1022.51 275.947 1025.05 273.941C1028.35 271.178 1032.17 269.035 1036.3 267.625C1046.16 264.124 1056.17 261.003 1066.29 258.271C1079.16 254.793 1089.79 251.036 1101.99 245.639C1103.16 254.993 1103.12 262.988 1101.74 272.302C1100.78 279.138 1098.58 284.775 1094.7 290.531L1101.03 334.504C1102.99 340.74 1104.78 345.937 1107.03 352.093C1108.28 355.491 1109.95 358.129 1112.45 360.807H1211.18C1207.09 354.784 1204.72 347.837 1204.31 340.66" fill="black"/>
<path d="M1352.19 266.666C1359.82 267.905 1366.19 269.464 1373.52 271.783C1376.46 272.665 1379.1 274.294 1381.15 276.497C1383.2 278.7 1384.6 281.394 1385.19 284.295C1385.94 287.423 1385.84 290.685 1384.9 293.766C1383.96 296.847 1382.21 299.643 1379.81 301.884C1375.08 306.59 1368.85 309.643 1362.11 310.559C1352.69 311.998 1344.36 311.278 1335.45 308.16C1331.29 306.779 1327.44 304.679 1324.07 301.964C1319.65 298.476 1316.41 293.798 1314.78 288.532C1313.33 284.127 1312.66 279.52 1312.78 274.901H1215.22V280.337C1215.22 289.132 1216.64 296.607 1219.84 304.882C1224.76 317.275 1231.47 326.869 1241.59 335.903C1254.07 347.315 1269.32 355.559 1285.96 359.888C1320.21 369.653 1356.33 371.839 1391.6 366.284C1408.16 363.995 1424.18 358.992 1438.97 351.493C1445.53 348.253 1451.68 344.296 1457.3 339.701C1470.09 329.696 1479.4 316.185 1483.98 300.972C1488.57 285.759 1488.21 269.566 1482.96 254.553C1479.31 243.196 1472.34 233.082 1462.88 225.412C1450.16 214.62 1435.07 206.734 1418.72 202.346L1408.06 199.428C1388.25 194.073 1368.1 189.96 1347.74 187.115C1341.99 186.316 1337.15 185.436 1331.49 184.157C1329.01 183.595 1326.59 182.791 1324.28 181.759C1322.85 181.144 1321.57 180.266 1320.49 179.175C1319.42 178.083 1318.58 176.799 1318.02 175.396C1317.46 173.992 1317.2 172.498 1317.24 170.997C1317.29 169.496 1317.64 168.018 1318.28 166.648L1318.74 165.768C1320.24 163.125 1322.27 160.8 1324.73 158.931C1327.18 157.063 1330.01 155.69 1333.03 154.895C1344.19 151.817 1354.44 152.097 1365.4 155.615C1370.44 157.214 1374.8 160.362 1377.8 164.574C1380.8 168.786 1382.26 173.828 1381.98 178.92H1476.04C1476.04 168.388 1474.1 157.939 1470.29 148.059C1466.63 137.908 1459.93 129.012 1451.05 122.475C1443.49 116.641 1435.01 111.999 1425.93 108.724C1417.13 105.4 1408 102.962 1398.68 101.448C1376.6 97.6577 1354.12 96.4496 1331.74 97.8506C1318.24 98.5702 1306.87 100.169 1293.66 103.127C1275.92 107.125 1261.59 113.721 1247.26 124.514C1235.47 133.142 1226.66 144.965 1221.97 158.453C1216.28 174.743 1216.9 192.456 1223.72 208.342C1227.27 217.314 1232.77 225.461 1239.84 232.248C1246.91 239.035 1255.4 244.307 1264.75 247.718C1274.62 251.475 1283.25 253.954 1293.66 255.993C1314.2 260.07 1331.57 263.228 1352.23 266.626M1671.8 100.089C1661.26 98.4902 1652.26 97.8106 1641.59 97.8106C1630.93 97.8106 1621.97 98.4902 1611.39 100.089C1582.03 104.109 1554.8 117.071 1533.7 137.066C1510.39 157.896 1496.11 186.383 1493.71 216.857C1491.79 235.343 1493.55 254.011 1498.91 271.863C1507.24 300.725 1522.99 323.031 1547.78 341.22C1563.19 352.836 1581.2 360.856 1600.39 364.645C1613.93 367.557 1627.76 368.979 1641.63 368.883C1656.22 368.883 1668.55 367.683 1682.83 364.645C1702.03 360.855 1720.04 352.835 1735.45 341.22L1678.21 281.337C1676.05 285.95 1672.96 290.109 1669.12 293.577C1665.29 297.044 1660.77 299.752 1655.84 301.545C1650.92 303.338 1645.67 304.182 1640.4 304.027C1635.13 303.873 1629.94 302.723 1625.14 300.645C1616.12 296.898 1608.92 289.994 1605.02 281.337C1601.28 273.508 1598.74 265.2 1597.48 256.672C1594.64 238.683 1594.98 223.093 1598.6 205.264C1600.48 196.03 1603.73 188.474 1609.1 180.559C1612.64 175.397 1617.47 171.159 1623.14 168.227C1628.81 165.295 1635.15 163.76 1641.59 163.76C1648.04 163.76 1654.38 165.295 1660.05 168.227C1665.72 171.159 1670.54 175.397 1674.09 180.559C1679.31 188.018 1682.88 196.427 1684.58 205.264C1688.21 223.133 1688.58 238.723 1685.75 256.672C1684.33 265.667 1682.09 273.062 1678.21 281.337L1735.45 341.22C1759.47 324.101 1776.69 299.637 1784.27 271.863C1789.73 253.074 1791.31 236.285 1789.48 216.857C1787.08 186.38 1772.8 157.891 1749.49 137.066C1728.39 117.064 1701.16 104.1 1671.8 100.089Z" fill="black"/>
<path d="M1902.67 131.99C1915.03 121.457 1928.98 112.765 1944.03 106.205C1968.6 94.8854 1996.73 92.8866 2022.77 100.609C2036.78 104.313 2049.58 111.368 2059.98 121.114C2070.38 130.86 2078.03 142.978 2082.21 156.334C2086.52 169.019 2088.66 182.289 2088.55 195.63V360.648H1982.73V212.26C1982.73 207.303 1982.07 203.065 1980.57 198.348C1979.33 194.251 1977.14 190.477 1974.16 187.313C1971.18 184.148 1967.49 181.674 1963.36 180.08C1954.39 176.372 1944.31 175.952 1935.03 178.899C1925.76 181.846 1917.93 187.955 1913.04 196.07C1908.84 202.733 1906.68 210.391 1906.79 218.176V360.648H1804.31V104.966H1900.42L1902.67 131.99Z" fill="black"/>
<path d="M2109.04 2.70947V70.2676H2208.65V2.70947H2109.04ZM2109.04 105.006V360.688H2208.65V105.006H2109.04ZM2476.22 327.508C2457.24 347.212 2432.14 360.516 2404.65 365.445C2385.32 369.202 2368.41 370.002 2348.79 368.043C2323.88 365.906 2300.12 357.004 2280.3 342.379C2263.87 330.871 2250.19 316.124 2240.18 299.126C2232.19 286.114 2226.84 271.761 2224.44 256.832C2220.69 235.085 2221.69 215.977 2227.64 194.71C2241.27 146.34 2279.13 112.082 2330.25 101.888C2359.41 96.0916 2385.32 96.6912 2414.19 103.847C2433.85 108.484 2451.9 117.98 2466.55 131.39C2475.93 139.597 2483.7 149.361 2489.47 160.212C2496.63 172.941 2499.91 187.35 2498.92 201.786H2407.82C2406.96 196.194 2404.97 190.82 2401.93 185.975C2398.9 181.131 2394.9 176.912 2390.15 173.564C2384.11 169.024 2376.75 166.394 2369.09 166.036C2361.43 165.678 2353.84 167.609 2347.37 171.565C2338.33 176.769 2331.65 185.023 2328.62 194.71C2320.83 217.455 2320.42 241.936 2327.46 264.907C2330.16 274.638 2335.69 283.429 2343.41 290.251C2347.69 294.29 2352.9 297.3 2358.62 299.037C2364.34 300.774 2370.4 301.188 2376.32 300.245C2383.79 299.323 2390.64 295.794 2395.57 290.331C2400.85 284.848 2404.32 277.993 2405.57 270.623C2406.57 265.227 2407.11 260.63 2407.44 255.153H2503.46C2504.6 268.383 2502.76 281.693 2498.06 294.179C2493.35 306.664 2485.91 318.031 2476.22 327.508Z" fill="black"/>
</g>
<defs>
<filter id="filter0_d_19_44" x="0" y="0" width="2508" height="379.991" filterUnits="userSpaceOnUse" color-interpolation-filters="sRGB">
<feFlood flood-opacity="0" result="BackgroundImageFix"/>
<feColorMatrix in="SourceAlpha" type="matrix" values="0 0 0 0 0 0 0 0 0 0 0 0 0 0 0 0 0 0 127 0" result="hardAlpha"/>
<feOffset dy="4"/>
<feGaussianBlur stdDeviation="2"/>
<feComposite in2="hardAlpha" operator="out"/>
<feColorMatrix type="matrix" values="0 0 0 0 0 0 0 0 0 0 0 0 0 0 0 0 0 0 0.25 0"/>
<feBlend mode="normal" in2="BackgroundImageFix" result="effect1_dropShadow_19_44"/>
<feBlend mode="normal" in="SourceGraphic" in2="effect1_dropShadow_19_44" result="shape"/>
</filter>
</defs>
</svg>
