<svg width="2500" height="384" viewBox="0 0 2500 384" fill="none" xmlns="http://www.w3.org/2000/svg">
<path d="M165.94 268.54C169.379 277.181 168.289 288.255 166.611 294.966C163.675 306.879 155.621 319.044 131.795 319.044C109.48 319.044 95.8893 306.124 95.8893 286.661V252.013H0V279.53C0 359.228 62.6678 383.305 129.866 383.305C194.463 383.305 247.651 361.326 256.124 301.678C260.487 270.805 257.299 250.587 255.789 243.121C240.688 168.289 105.117 145.973 94.9664 104.111C93.5569 97.9373 93.4426 91.5386 94.6309 85.3188C97.1477 73.8255 104.95 61.3255 127.265 61.3255C148.238 61.3255 160.403 74.245 160.403 93.7081V115.856H249.581V90.6879C249.581 12.8356 179.698 0.671143 129.195 0.671143C65.604 0.671143 13.6745 21.7282 4.19463 80.0336C1.67785 95.9732 1.25839 110.235 5.03356 128.188C20.5537 201.175 147.483 222.315 165.94 268.54Z" fill="#034EA2"/>
<path d="M382.55 12.0806L316.274 369.379H412.835L461.744 45.1343H463.758L511.325 369.379H607.382L541.526 11.9967L382.55 12.0806ZM922.399 12.0806L878.355 285.235H876.258L832.298 12.0806H686.576L678.691 369.379H768.12L770.301 48.1544H772.315L831.962 369.379H922.65L982.382 48.2383H984.311L986.576 369.379H1075.92L1068.04 11.9967L922.399 12.0806Z" fill="#034EA2"/>
<path d="M1327.6 267.869C1331.04 276.51 1329.95 287.584 1328.27 294.295C1325.34 306.208 1317.28 318.373 1293.46 318.373C1271.14 318.373 1257.55 305.453 1257.55 285.99V251.342H1161.66V278.859C1161.66 358.557 1224.33 382.634 1291.53 382.634C1356.12 382.634 1409.31 360.654 1417.79 301.007C1422.15 270.134 1418.96 249.916 1417.45 242.45C1402.35 167.617 1266.78 145.302 1256.63 103.44C1255.22 97.2662 1255.1 90.8675 1256.29 84.6477C1258.81 73.1544 1266.61 60.6544 1288.93 60.6544C1309.9 60.6544 1322.06 73.5738 1322.06 93.0369V115.185H1411.24V90.0168C1411.24 12.1644 1341.36 0 1290.86 0C1227.27 0 1175.34 21.0571 1165.86 79.3624C1163.34 95.302 1162.92 109.564 1166.69 127.517C1182.21 200.503 1309.14 221.644 1327.6 267.869Z" fill="#034EA2"/>
<path d="M1627.52 315.856C1652.35 315.856 1659.98 298.742 1661.74 290.017C1662.5 286.158 1662.58 280.956 1662.58 276.342V12.0805H1753.02V268.205C1753.04 276.042 1752.76 283.878 1752.18 291.695C1745.89 358.389 1693.2 380.034 1627.52 380.034C1561.74 380.034 1509.06 358.389 1502.77 291.695C1502.52 288.171 1501.85 274.748 1501.93 268.205V11.9966H1592.37V276.258C1592.28 280.956 1592.45 286.158 1593.2 290.017C1594.88 298.742 1602.6 315.856 1627.52 315.856ZM2064.43 12.0805L2069.29 292.534H2067.37L1985.15 12.0805H1852.6V365.604H1940.44L1935.57 75.4195H1937.5L2025.67 365.604H2152.94V12.0805H2064.43ZM2372.73 312.164C2398.57 312.164 2407.63 295.805 2409.23 286.158C2409.98 282.215 2410.07 277.181 2410.07 272.735V220.721H2373.41V168.708H2500V264.513C2500 271.225 2499.83 276.091 2498.74 288.003C2492.87 353.104 2436.41 376.342 2373.07 376.342C2309.73 376.342 2253.36 353.104 2247.4 288.003C2246.39 276.091 2246.14 271.225 2246.14 264.513V114.178C2246.14 107.802 2246.98 96.5604 2247.65 90.6879C2255.62 23.8255 2309.73 2.349 2373.07 2.349C2436.41 2.349 2491.95 23.6577 2498.49 90.604C2499.66 102.013 2499.33 114.094 2499.33 114.094V126.091H2409.23V106.04C2409.23 106.04 2409.23 97.651 2408.14 92.4497C2406.46 84.5638 2399.75 66.443 2372.4 66.443C2346.39 66.443 2338.76 83.6409 2336.83 92.4497C2335.74 97.1477 2335.32 103.524 2335.32 109.312V272.651C2335.32 277.181 2335.49 282.215 2336.16 286.242C2337.84 295.805 2346.9 312.164 2372.73 312.164Z" fill="#034EA2"/>
</svg>
