<svg width="2422" height="424" viewBox="0 0 2422 424" fill="none" xmlns="http://www.w3.org/2000/svg">
<path fill-rule="evenodd" clip-rule="evenodd" d="M2408.7 368.948C2408.7 365.459 2407.16 361.788 2404.07 360.037C2400.96 358.195 2397.48 358.014 2393.99 358.014H2375.98V399.351H2381.02V380.284H2390.32L2402.12 399.351H2408.13L2395.64 380.284C2403.01 380.077 2408.7 377.08 2408.7 368.948ZM2388.76 376.302H2381.01V361.684H2392.81C2397.95 361.684 2403.58 362.463 2403.58 368.857C2403.59 377.275 2394.56 376.302 2388.76 376.302ZM2172.92 169.097L2248.54 88.3555C2252.92 82.4279 2255.1 78.2774 2255.1 74.7235C2255.1 68.7959 2250.01 66.4223 2233.97 66.4223H2214.89V15.448H2421.41V66.4223H2394.28C2362.94 66.4223 2357.12 71.1566 2313.39 126.281L2193.76 255.468V334.304C2193.76 354.473 2203.95 361.568 2233.1 361.568H2278.27V410.752H1989.01V361.568H2034.17C2063.31 361.568 2073.51 354.473 2073.51 334.304V255.468L1932.62 99.601C1909.33 72.3499 1912.55 66.4223 1847.72 66.4223V15.448H2109.31V66.4223H2090.69C2071.74 66.4223 2063.71 69.9762 2063.71 77.0841C2063.71 83.0246 2069.53 87.7589 2073.18 92.4931L2144.46 170.187C2152.93 178.994 2163.27 180.135 2172.92 169.097ZM417.782 15.435H480.884V157.67H422.607C417.445 129.239 399.649 118.175 383.423 103.259C354.149 76.3577 290.748 53.9575 237.426 53.9575C168.604 53.9575 110.522 75.3071 110.522 106.696C110.522 193.832 504.114 124.491 504.114 289.244C504.114 375.174 419.806 423.178 268.4 423.178C215.986 423.178 136.671 406.913 89.8731 382.061C75.2034 373.591 68.9775 390.077 66.2277 410.739H1.53053V263.757H60.0538C72.9595 301.099 90.7421 308.79 107.098 323.616C135.478 349.7 203.028 368.676 264.976 368.066C358.377 367.145 390.492 346.729 390.492 317.092C390.492 287.467 358.727 280.346 256.376 264.353L169.473 250.124C71.403 235.299 0 213.379 0 135.153C0 53.9576 90.3271 2.98318 233.146 2.98318C293.329 2.98318 343.681 11.025 392.01 38.341C405.395 47.0443 417.951 48.0819 417.782 15.435ZM1649.26 253.575L1650.51 95.4893C1650.51 74.7494 1639.71 67.6415 1608.88 67.6415H1572.66V18.4571H1803.14V67.6415H1773.1C1742.25 67.6415 1731.45 74.7624 1731.45 95.4893V413.748L1641.24 413.035L1349.1 136.386V337.3C1349.1 357.456 1359.89 365.148 1390.72 365.148H1430.82V413.748H1191.45V365.148H1231.11C1261.95 365.148 1272.74 357.443 1272.74 337.3V95.4893C1272.74 74.7494 1261.95 67.6415 1231.11 67.6415H1191.45V18.4571H1398.41L1649.26 253.575ZM877.213 0C693.524 0 578.539 81.2087 578.539 211.576C578.539 339.608 691.928 420.195 871.609 420.195C1062.46 420.195 1173.47 340.789 1173.47 205.065C1173.49 82.9857 1053.69 0 877.213 0ZM873.036 368.65C771.36 368.65 712.915 309.971 712.915 208.619C712.915 109.653 773.902 50.9744 878.121 50.9744C978.098 50.9744 1036.54 110.846 1036.54 212.782C1036.54 312.344 977.242 368.65 873.036 368.65Z" fill="black"/>
</svg>
