<svg width="2508" height="663" viewBox="0 0 2508 663" fill="none" xmlns="http://www.w3.org/2000/svg">
<g filter="url(#filter0_d_20_92)">
<mask id="path-1-inside-1_20_92" fill="white">
<path d="M2254.95 545.301H2039.96C1919.11 545.301 1908.36 445.696 1908.36 415.268C1908.36 384.84 1919.11 285.234 2039.96 285.234H2254.95C2375.8 285.234 2386.55 384.84 2386.55 415.268C2386.55 445.696 2375.8 545.301 2254.95 545.301ZM2259.62 176.174H2043.68C1819.27 176.174 1799.3 359.311 1799.3 415.268C1799.3 471.224 1819.27 654.361 2043.68 654.361H2259.62C2484.04 654.361 2504 471.224 2504 415.268C2504 359.311 2484.04 176.174 2259.62 176.174ZM1756.14 192.952H1686.13C1656.15 192.952 1649.97 197.994 1638.41 214.924C1626.84 231.845 1426.6 533.397 1426.6 533.397C1420.21 542.666 1413.43 546.417 1405.01 546.417C1396.58 546.417 1389.81 542.666 1383.42 533.397C1383.42 533.397 1183.17 231.845 1171.6 214.924C1160.04 197.986 1153.87 192.952 1123.88 192.952H1053.88C1037.77 192.952 1030.39 205.377 1040.52 220.553L1279.68 578.757C1316.79 632.6 1344.02 654.361 1405.01 654.361C1466 654.361 1493.23 632.6 1530.34 578.757L1769.5 220.553C1779.63 205.376 1772.26 192.952 1756.14 192.952ZM834.538 222.205C834.538 201.249 842.718 192.952 863.364 192.952H914.782C935.419 192.952 943.599 201.258 943.599 222.205V625.099C943.599 646.056 935.419 654.361 914.782 654.361H863.364C842.727 654.361 834.539 646.056 834.539 625.1L834.538 222.205ZM830.243 94.5461C813.599 77.9104 813.599 64.7139 830.243 48.0698L865.822 12.4908C882.466 -4.16221 895.663 -4.16221 912.307 12.4825L947.903 48.0615C964.538 64.7145 964.538 77.9104 947.903 94.5544L912.307 130.133C895.663 146.777 882.466 146.777 865.83 130.133L830.243 94.5544V94.5461ZM723.884 192.952H653.951C624.002 192.952 617.827 198.002 606.283 214.924C594.723 231.845 394.689 533.388 394.689 533.388C388.314 542.658 381.544 546.409 373.129 546.409C364.698 546.409 357.936 542.658 351.553 533.388C351.553 533.388 151.518 231.836 139.975 214.915C128.432 198.002 122.257 192.952 92.3076 192.952H22.3746C4.40519 192.952 -1.09042 205.377 9.03557 220.553C19.145 235.737 247.929 578.749 247.929 578.749C285.001 632.6 312.215 654.361 373.13 654.361C434.036 654.361 461.259 632.6 498.323 578.749L737.224 220.553C747.341 205.376 741.855 192.952 723.885 192.952"/>
</mask>
<path d="M2254.95 545.301H2039.96C1919.11 545.301 1908.36 445.696 1908.36 415.268C1908.36 384.84 1919.11 285.234 2039.96 285.234H2254.95C2375.8 285.234 2386.55 384.84 2386.55 415.268C2386.55 445.696 2375.8 545.301 2254.95 545.301ZM2259.62 176.174H2043.68C1819.27 176.174 1799.3 359.311 1799.3 415.268C1799.3 471.224 1819.27 654.361 2043.68 654.361H2259.62C2484.04 654.361 2504 471.224 2504 415.268C2504 359.311 2484.04 176.174 2259.62 176.174ZM1756.14 192.952H1686.13C1656.15 192.952 1649.97 197.994 1638.41 214.924C1626.84 231.845 1426.6 533.397 1426.6 533.397C1420.21 542.666 1413.43 546.417 1405.01 546.417C1396.58 546.417 1389.81 542.666 1383.42 533.397C1383.42 533.397 1183.17 231.845 1171.6 214.924C1160.04 197.986 1153.87 192.952 1123.88 192.952H1053.88C1037.77 192.952 1030.39 205.377 1040.52 220.553L1279.68 578.757C1316.79 632.6 1344.02 654.361 1405.01 654.361C1466 654.361 1493.23 632.6 1530.34 578.757L1769.5 220.553C1779.63 205.376 1772.26 192.952 1756.14 192.952ZM834.538 222.205C834.538 201.249 842.718 192.952 863.364 192.952H914.782C935.419 192.952 943.599 201.258 943.599 222.205V625.099C943.599 646.056 935.419 654.361 914.782 654.361H863.364C842.727 654.361 834.539 646.056 834.539 625.1L834.538 222.205ZM830.243 94.5461C813.599 77.9104 813.599 64.7139 830.243 48.0698L865.822 12.4908C882.466 -4.16221 895.663 -4.16221 912.307 12.4825L947.903 48.0615C964.538 64.7145 964.538 77.9104 947.903 94.5544L912.307 130.133C895.663 146.777 882.466 146.777 865.83 130.133L830.243 94.5544V94.5461ZM723.884 192.952H653.951C624.002 192.952 617.827 198.002 606.283 214.924C594.723 231.845 394.689 533.388 394.689 533.388C388.314 542.658 381.544 546.409 373.129 546.409C364.698 546.409 357.936 542.658 351.553 533.388C351.553 533.388 151.518 231.836 139.975 214.915C128.432 198.002 122.257 192.952 92.3076 192.952H22.3746C4.40519 192.952 -1.09042 205.377 9.03557 220.553C19.145 235.737 247.929 578.749 247.929 578.749C285.001 632.6 312.215 654.361 373.13 654.361C434.036 654.361 461.259 632.6 498.323 578.749L737.224 220.553C747.341 205.376 741.855 192.952 723.885 192.952" fill="#415FFF"/>
<path d="M1638.41 214.924L1639.24 215.488L1639.24 215.488L1638.41 214.924ZM1426.6 533.397L1427.43 533.964L1427.43 533.957L1427.44 533.95L1426.6 533.397ZM1383.42 533.397L1382.59 533.95L1382.59 533.957L1382.6 533.964L1383.42 533.397ZM1171.6 214.924L1170.78 215.488L1170.78 215.488L1171.6 214.924ZM1040.52 220.553L1041.35 219.998L1041.35 219.998L1040.52 220.553ZM1279.68 578.757L1278.85 579.313L1278.85 579.319L1278.86 579.325L1279.68 578.757ZM1530.34 578.757L1531.17 579.325L1531.17 579.319L1531.18 579.313L1530.34 578.757ZM1769.5 220.553L1768.66 219.998L1768.66 219.998L1769.5 220.553ZM834.538 222.205L833.538 222.205L833.538 222.205L834.538 222.205ZM834.539 625.1L835.539 625.1L835.539 625.1L834.539 625.1ZM830.243 94.5461H831.243V94.1318L830.95 93.8388L830.243 94.5461ZM830.243 48.0698L829.536 47.3627L830.243 48.0698ZM865.822 12.4908L866.529 13.1979L866.53 13.1977L865.822 12.4908ZM912.307 12.4825L911.6 13.1896L911.6 13.1898L912.307 12.4825ZM947.903 48.0615L948.61 47.3548L948.609 47.3542L947.903 48.0615ZM947.903 94.5544L948.609 95.2617L948.61 95.2614L947.903 94.5544ZM912.307 130.133L911.6 129.426L911.6 129.426L912.307 130.133ZM865.83 130.133L866.538 129.427L866.538 129.426L865.83 130.133ZM830.243 94.5544H829.243V94.9687L829.536 95.2616L830.243 94.5544ZM606.283 214.924L607.109 215.488L607.109 215.487L606.283 214.924ZM394.689 533.388L395.513 533.955L395.518 533.948L395.523 533.941L394.689 533.388ZM351.553 533.388L350.719 533.941L350.724 533.948L350.729 533.956L351.553 533.388ZM139.975 214.915L140.801 214.352L140.801 214.352L139.975 214.915ZM9.03557 220.553L9.86796 219.999L9.86741 219.998L9.03557 220.553ZM247.929 578.749L247.097 579.304L247.101 579.31L247.105 579.316L247.929 578.749ZM498.323 578.749L499.146 579.316L499.15 579.31L499.155 579.304L498.323 578.749ZM737.224 220.553L738.055 221.108L738.056 221.108L737.224 220.553ZM2254.95 544.301H2039.96V546.301H2254.95V544.301ZM2039.96 544.301C1979.87 544.301 1947.3 519.567 1929.69 491.168C1912.04 462.692 1909.36 430.401 1909.36 415.268H1907.36C1907.36 430.563 1910.06 463.288 1927.99 492.222C1945.97 521.232 1979.2 546.301 2039.96 546.301V544.301ZM1909.36 415.268C1909.36 400.135 1912.04 367.844 1929.69 339.367C1947.3 310.968 1979.87 286.234 2039.96 286.234V284.234C1979.2 284.234 1945.97 309.303 1927.99 338.314C1910.06 367.247 1907.36 399.973 1907.36 415.268H1909.36ZM2039.96 286.234H2254.95V284.234H2039.96V286.234ZM2254.95 286.234C2315.04 286.234 2347.62 310.968 2365.22 339.367C2382.87 367.844 2385.55 400.135 2385.55 415.268H2387.55C2387.55 399.973 2384.86 367.247 2366.92 338.314C2348.94 309.303 2315.71 284.234 2254.95 284.234V286.234ZM2385.55 415.268C2385.55 430.401 2382.87 462.692 2365.22 491.168C2347.62 519.567 2315.04 544.301 2254.95 544.301V546.301C2315.71 546.301 2348.94 521.232 2366.92 492.222C2384.86 463.288 2387.55 430.563 2387.55 415.268H2385.55ZM2259.62 175.174H2043.68V177.174H2259.62V175.174ZM2043.68 175.174C1931.15 175.174 1869.72 221.122 1836.49 274.206C1803.3 327.215 1798.3 387.207 1798.3 415.268H1800.3C1800.3 387.371 1805.29 327.817 1838.19 275.268C1871.04 222.795 1931.8 177.174 2043.68 177.174V175.174ZM1798.3 415.268C1798.3 443.328 1803.3 503.32 1836.49 556.329C1869.72 609.413 1931.15 655.361 2043.68 655.361V653.361C1931.8 653.361 1871.04 607.74 1838.19 555.267C1805.29 502.718 1800.3 443.164 1800.3 415.268H1798.3ZM2043.68 655.361H2259.62V653.361H2043.68V655.361ZM2259.62 655.361C2372.16 655.361 2433.58 609.413 2466.82 556.329C2500 503.32 2505 443.328 2505 415.268H2503C2503 443.164 2498.02 502.718 2465.12 555.267C2432.27 607.74 2371.5 653.361 2259.62 653.361V655.361ZM2505 415.268C2505 387.207 2500 327.215 2466.82 274.206C2433.58 221.122 2372.16 175.174 2259.62 175.174V177.174C2371.5 177.174 2432.27 222.795 2465.12 275.268C2498.02 327.817 2503 387.371 2503 415.268H2505ZM1756.14 191.952H1686.13V193.952H1756.14V191.952ZM1686.13 191.952C1671.12 191.952 1661.88 193.206 1654.92 196.695C1647.93 200.198 1643.37 205.89 1637.59 214.36L1639.24 215.488C1645.02 207.028 1649.33 201.734 1655.81 198.483C1662.32 195.219 1671.16 193.952 1686.13 193.952V191.952ZM1637.59 214.359C1631.79 222.827 1578.84 302.455 1527.33 379.952C1501.58 418.704 1476.19 456.927 1457.24 485.462C1447.76 499.729 1439.89 511.575 1434.4 519.853C1431.65 523.993 1429.49 527.24 1428.02 529.453C1427.29 530.559 1426.72 531.407 1426.34 531.978C1426.15 532.264 1426.01 532.48 1425.91 532.625C1425.87 532.697 1425.83 532.752 1425.81 532.789C1425.79 532.807 1425.78 532.821 1425.78 532.83C1425.78 532.834 1425.77 532.838 1425.77 532.84C1425.77 532.842 1425.77 532.844 1426.6 533.397C1427.44 533.95 1427.44 533.949 1427.44 533.946C1427.44 533.944 1427.44 533.941 1427.44 533.936C1427.45 533.927 1427.46 533.913 1427.47 533.895C1427.5 533.858 1427.53 533.804 1427.58 533.731C1427.68 533.586 1427.82 533.37 1428.01 533.084C1428.39 532.513 1428.95 531.666 1429.69 530.559C1431.16 528.346 1433.31 525.099 1436.06 520.96C1441.56 512.681 1449.43 500.836 1458.9 486.568C1477.86 458.033 1503.25 419.811 1529 381.059C1580.51 303.55 1633.46 223.942 1639.24 215.488L1637.59 214.359ZM1425.78 532.829C1422.64 537.383 1419.44 540.52 1416.06 542.522C1412.68 544.518 1409.06 545.417 1405.01 545.417V547.417C1409.38 547.417 1413.36 546.441 1417.07 544.244C1420.78 542.053 1424.17 538.681 1427.43 533.964L1425.78 532.829ZM1405.01 545.417C1400.95 545.417 1397.33 544.518 1393.96 542.522C1390.57 540.52 1387.38 537.383 1384.25 532.83L1382.6 533.964C1385.85 538.68 1389.23 542.053 1392.94 544.244C1396.65 546.441 1400.63 547.417 1405.01 547.417V545.417ZM1383.42 533.397C1384.26 532.844 1384.25 532.842 1384.25 532.84C1384.25 532.838 1384.25 532.834 1384.25 532.83C1384.24 532.821 1384.23 532.807 1384.22 532.789C1384.19 532.752 1384.16 532.697 1384.11 532.625C1384.01 532.48 1383.87 532.264 1383.68 531.978C1383.3 531.407 1382.74 530.559 1382 529.453C1380.53 527.24 1378.38 523.992 1375.63 519.853C1370.13 511.575 1362.26 499.729 1352.79 485.462C1333.83 456.927 1308.44 418.704 1282.68 379.952C1231.18 302.455 1178.22 222.827 1172.43 214.359L1170.78 215.488C1176.56 223.941 1229.51 303.55 1281.02 381.059C1306.77 419.811 1332.17 458.033 1351.12 486.568C1360.6 500.836 1368.46 512.681 1373.96 520.96C1376.71 525.099 1378.87 528.347 1380.34 530.559C1381.07 531.666 1381.64 532.513 1382.01 533.084C1382.2 533.37 1382.35 533.586 1382.44 533.731C1382.49 533.804 1382.53 533.858 1382.55 533.895C1382.57 533.913 1382.57 533.927 1382.58 533.936C1382.58 533.941 1382.59 533.944 1382.59 533.947C1382.59 533.949 1382.59 533.95 1383.42 533.397ZM1172.43 214.36C1166.64 205.886 1162.09 200.194 1155.1 196.692C1148.14 193.204 1138.89 191.952 1123.88 191.952V193.952C1138.86 193.952 1147.69 195.217 1154.2 198.48C1160.69 201.73 1165 207.024 1170.78 215.488L1172.43 214.36ZM1123.88 191.952H1053.88V193.952H1123.88V191.952ZM1053.88 191.952C1045.58 191.952 1039.29 195.161 1036.47 200.601C1033.65 206.042 1034.5 213.341 1039.69 221.108L1041.35 219.998C1036.4 212.589 1035.88 206.088 1038.24 201.522C1040.61 196.956 1046.06 193.952 1053.88 193.952V191.952ZM1039.69 221.108L1278.85 579.313L1280.51 578.202L1041.35 219.998L1039.69 221.108ZM1278.86 579.325C1297.43 606.27 1313.6 625.31 1332.85 637.593C1352.13 649.896 1374.39 655.361 1405.01 655.361V653.361C1374.64 653.361 1352.79 647.946 1333.93 635.907C1315.03 623.849 1299.04 605.087 1280.5 578.19L1278.86 579.325ZM1405.01 655.361C1435.63 655.361 1457.89 649.896 1477.17 637.593C1496.41 625.31 1512.59 606.27 1531.17 579.325L1529.52 578.19C1510.98 605.087 1494.99 623.849 1476.09 635.907C1457.23 647.946 1435.38 653.361 1405.01 653.361V655.361ZM1531.18 579.313L1770.33 221.108L1768.66 219.998L1529.51 578.202L1531.18 579.313ZM1770.33 221.108C1775.51 213.341 1776.37 206.042 1773.55 200.601C1770.74 195.16 1764.44 191.952 1756.14 191.952V193.952C1763.97 193.952 1769.41 196.956 1771.78 201.521C1774.14 206.087 1773.61 212.588 1768.66 219.998L1770.33 221.108ZM835.538 222.205C835.538 211.821 837.572 204.835 841.921 200.422C846.267 196.013 853.14 193.952 863.364 193.952V191.952C852.941 191.952 845.402 194.04 840.496 199.018C835.594 203.993 833.538 211.634 833.538 222.205H835.538ZM863.364 193.952H914.782V191.952H863.364V193.952ZM914.782 193.952C925.001 193.952 931.872 196.014 936.217 200.425C940.565 204.84 942.599 211.825 942.599 222.205H944.599C944.599 211.638 942.542 203.997 937.642 199.022C932.737 194.043 925.2 191.952 914.782 191.952V193.952ZM942.599 222.205V625.099H944.599V222.205H942.599ZM942.599 625.099C942.599 635.484 940.565 642.472 936.217 646.887C931.872 651.299 925.001 653.361 914.782 653.361V655.361C925.2 655.361 932.737 653.271 937.642 648.29C942.542 643.314 944.599 635.671 944.599 625.099H942.599ZM914.782 653.361H863.364V655.361H914.782V653.361ZM863.364 653.361C853.145 653.361 846.271 651.299 841.925 646.887C837.574 642.472 835.539 635.484 835.539 625.1H833.539C833.539 635.671 835.597 643.315 840.5 648.291C845.407 653.271 852.946 655.361 863.364 655.361V653.361ZM835.539 625.1L835.538 222.205L833.538 222.205L833.539 625.1L835.539 625.1ZM830.95 93.8388C822.696 85.5892 818.76 78.3738 818.76 71.3111C818.76 64.2483 822.696 57.0308 830.95 48.7769L829.536 47.3627C821.146 55.7529 816.76 63.4557 816.76 71.3111C816.76 79.1666 821.146 86.8673 829.536 95.2534L830.95 93.8388ZM830.95 48.7769L866.529 13.1979L865.115 11.7837L829.536 47.3627L830.95 48.7769ZM866.53 13.1977C874.783 4.9394 882.001 1.00098 889.065 1C896.128 0.999017 903.346 4.93541 911.6 13.1896L913.014 11.7754C904.624 3.38486 896.921 -1.00109 889.064 -1C881.208 -0.998906 873.505 3.38918 865.115 11.7839L866.53 13.1977ZM911.6 13.1898L947.196 48.7688L948.609 47.3542L913.014 11.7752L911.6 13.1898ZM947.195 48.7682C955.445 57.0265 959.379 64.2462 959.379 71.3113C959.379 78.3763 955.445 85.5937 947.195 93.8475L948.61 95.2614C956.996 86.871 961.379 79.1685 961.379 71.3113C961.379 63.4542 956.996 55.7495 948.61 47.3548L947.195 48.7682ZM947.196 93.8472L911.6 129.426L913.014 130.841L948.609 95.2617L947.196 93.8472ZM911.6 129.426C903.346 137.68 896.128 141.616 889.066 141.616C882.003 141.616 874.787 137.68 866.538 129.427L865.123 130.84C873.509 139.231 881.21 143.616 889.066 143.616C896.921 143.616 904.624 139.231 913.014 130.841L911.6 129.426ZM866.538 129.426L830.95 93.8472L829.536 95.2616L865.123 130.841L866.538 129.426ZM831.243 94.5544V94.5461H829.243V94.5544H831.243ZM723.884 191.952H653.951V193.952H723.884V191.952ZM653.951 191.952C638.958 191.952 629.722 193.208 622.767 196.699C615.785 200.202 611.233 205.894 605.457 214.36L607.109 215.487C612.878 207.032 617.184 201.738 623.664 198.486C630.169 195.221 638.995 193.952 653.951 193.952V191.952ZM605.458 214.36C599.673 222.828 546.768 302.453 495.318 379.949C469.591 418.699 444.226 456.921 425.292 485.455C415.825 499.722 407.966 511.567 402.474 519.846C399.728 523.985 397.573 527.232 396.105 529.445C395.371 530.551 394.809 531.399 394.43 531.97C394.241 532.256 394.097 532.472 394.001 532.617C393.953 532.69 393.917 532.744 393.892 532.781C393.88 532.799 393.871 532.813 393.865 532.822C393.862 532.826 393.86 532.83 393.858 532.832C393.857 532.834 393.856 532.836 394.689 533.388C395.523 533.941 395.523 533.94 395.525 533.938C395.526 533.935 395.529 533.932 395.532 533.927C395.538 533.918 395.547 533.905 395.559 533.886C395.583 533.85 395.62 533.795 395.668 533.723C395.764 533.578 395.907 533.361 396.097 533.076C396.476 532.505 397.038 531.657 397.772 530.551C399.24 528.338 401.394 525.09 404.14 520.951C409.633 512.673 417.492 500.828 426.958 486.561C445.892 458.027 471.258 419.805 496.984 381.055C548.442 303.548 601.334 223.941 607.109 215.488L605.458 214.36ZM393.865 532.822C390.734 537.375 387.546 540.512 384.164 542.514C380.794 544.51 377.177 545.409 373.129 545.409V547.409C377.496 547.409 381.472 546.432 385.183 544.235C388.884 542.044 392.269 538.671 395.513 533.955L393.865 532.822ZM373.129 545.409C369.073 545.409 365.454 544.509 362.082 542.514C358.7 540.512 355.512 537.375 352.376 532.821L350.729 533.956C353.977 538.671 357.362 542.045 361.064 544.235C364.777 546.432 368.754 547.409 373.129 547.409V545.409ZM351.553 533.388C352.386 532.836 352.385 532.835 352.384 532.832C352.382 532.83 352.38 532.826 352.377 532.822C352.371 532.813 352.362 532.799 352.349 532.781C352.325 532.744 352.289 532.69 352.241 532.617C352.145 532.472 352.001 532.256 351.812 531.97C351.433 531.399 350.87 530.551 350.137 529.445C348.669 527.232 346.514 523.985 343.768 519.845C338.276 511.567 330.417 499.721 320.95 485.454C302.016 456.919 276.651 418.696 250.926 379.944C199.478 302.447 146.578 222.819 140.801 214.352L139.149 215.479C144.916 223.932 197.804 303.542 249.259 381.05C274.985 419.802 300.35 458.025 319.284 486.559C328.75 500.827 336.609 512.672 342.101 520.951C344.848 525.09 347.002 528.338 348.47 530.551C349.204 531.657 349.766 532.505 350.145 533.076C350.334 533.361 350.478 533.578 350.574 533.723C350.622 533.795 350.659 533.85 350.683 533.886C350.695 533.905 350.704 533.918 350.71 533.927C350.713 533.932 350.715 533.935 350.717 533.938C350.718 533.94 350.719 533.941 351.553 533.388ZM140.801 214.352C135.026 205.89 130.473 200.2 123.492 196.698C116.537 193.208 107.3 191.952 92.3076 191.952V193.952C107.264 193.952 116.089 195.221 122.595 198.485C129.075 201.736 133.381 207.028 139.149 215.479L140.801 214.352ZM92.3076 191.952H22.3746V193.952H92.3076V191.952ZM22.3746 191.952C13.1965 191.952 6.85281 195.135 4.26448 200.636C1.69434 206.097 3.05248 213.388 8.20374 221.108L9.86741 219.998C4.89267 212.542 3.93562 206.032 6.07413 201.487C8.19447 196.981 13.5833 193.952 22.3746 193.952V191.952ZM8.20319 221.107C13.2582 228.7 72.9819 318.249 131.441 405.9C160.671 449.725 189.585 493.076 211.191 525.471C221.995 541.668 230.971 555.127 237.247 564.535C240.384 569.24 242.847 572.932 244.525 575.448C245.364 576.706 246.007 577.67 246.44 578.319C246.657 578.644 246.821 578.89 246.931 579.055C246.986 579.138 247.027 579.2 247.055 579.241C247.069 579.262 247.079 579.278 247.086 579.288C247.09 579.293 247.093 579.297 247.094 579.3C247.096 579.303 247.097 579.304 247.929 578.749C248.761 578.194 248.76 578.193 248.758 578.19C248.756 578.188 248.754 578.184 248.75 578.178C248.743 578.168 248.733 578.152 248.719 578.132C248.691 578.09 248.65 578.028 248.595 577.945C248.485 577.781 248.321 577.534 248.104 577.21C247.671 576.56 247.028 575.596 246.189 574.338C244.511 571.822 242.048 568.13 238.91 563.426C232.635 554.017 223.659 540.559 212.855 524.361C191.249 491.967 162.335 448.616 133.105 404.79C74.6453 317.139 14.9223 227.59 9.86796 219.999L8.20319 221.107ZM247.105 579.316C265.658 606.265 281.822 625.308 301.05 637.592C320.309 649.896 342.545 655.361 373.13 655.361V653.361C342.8 653.361 320.972 647.946 302.127 635.906C283.251 623.847 267.272 605.083 248.752 578.182L247.105 579.316ZM373.13 655.361C403.71 655.361 425.947 649.896 445.206 637.592C464.433 625.308 480.598 606.265 499.146 579.316L497.499 578.182C478.984 605.083 463.005 623.847 444.129 635.906C425.284 647.946 403.456 653.361 373.13 653.361V655.361ZM499.155 579.304L738.055 221.108L736.392 219.998L497.491 578.194L499.155 579.304ZM738.056 221.108C743.203 213.387 744.561 206.097 741.992 200.636C739.405 195.135 733.063 191.952 723.885 191.952V193.952C732.676 193.952 738.063 196.981 740.182 201.487C742.32 206.031 741.362 212.542 736.391 219.998L738.056 221.108Z" fill="black" mask="url(#path-1-inside-1_20_92)"/>
</g>
<defs>
<filter id="filter0_d_20_92" x="0" y="0" width="2508" height="662.361" filterUnits="userSpaceOnUse" color-interpolation-filters="sRGB">
<feFlood flood-opacity="0" result="BackgroundImageFix"/>
<feColorMatrix in="SourceAlpha" type="matrix" values="0 0 0 0 0 0 0 0 0 0 0 0 0 0 0 0 0 0 127 0" result="hardAlpha"/>
<feOffset dy="4"/>
<feGaussianBlur stdDeviation="2"/>
<feComposite in2="hardAlpha" operator="out"/>
<feColorMatrix type="matrix" values="0 0 0 0 0 0 0 0 0 0 0 0 0 0 0 0 0 0 0.25 0"/>
<feBlend mode="normal" in2="BackgroundImageFix" result="effect1_dropShadow_20_92"/>
<feBlend mode="normal" in="SourceGraphic" in2="effect1_dropShadow_20_92" result="shape"/>
</filter>
</defs>
</svg>
