<svg width="2497" height="2497" viewBox="0 0 2497 2497" fill="none" xmlns="http://www.w3.org/2000/svg">
<rect width="2496.73" height="2496.88" fill="#FF6700"/>
<path d="M1958.05 785H1761.63C1753.21 785 1746.4 791.692 1746.4 799.934V1696.19C1746.4 1704.37 1753.21 1711.06 1761.63 1711.06H1958.05C1966.39 1711.06 1973.29 1704.36 1973.29 1696.19V799.934C1973.29 791.692 1966.39 785 1958.05 785ZM1287.38 785H539.172C530.761 785 524 791.692 524 799.934V1696.19C524 1704.37 530.761 1711.06 539.172 1711.06H735.643C744.006 1711.06 750.934 1704.36 750.934 1696.19V992.763C750.934 984.64 757.695 977.9 766.106 977.9H1189.32C1308.33 977.9 1342.11 1069.06 1342.11 1127.86V1696.19C1342.11 1704.37 1348.95 1711.06 1357.36 1711.06H1553.71C1562.07 1711.06 1568.93 1704.36 1568.93 1696.19V1060.39C1568.93 1007.94 1562.62 932.525 1494.96 866.146C1424.16 796.851 1359.58 785 1287.38 785Z" fill="white"/>
<path d="M1149.75 1141.98H943.486C935.075 1141.98 928.173 1148.68 928.173 1156.87V1696.26C928.173 1704.41 935.075 1711.1 943.486 1711.1H1149.75C1158.09 1711.1 1164.93 1704.41 1164.93 1696.26V1156.87C1164.93 1148.67 1158.09 1141.98 1149.75 1141.98Z" fill="white"/>
</svg>
